<svg xmlns="http://www.w3.org/2000/svg" xmlns:xlink="http://www.w3.org/1999/xlink" width="800" zoomAndPan="magnify" viewBox="0 0 600 449.999984" height="600" preserveAspectRatio="xMidYMid meet" version="1.0"><defs><g/></defs><g fill="#000000" fill-opacity="1"><g transform="translate(136.388671, 245.249981)"><g><path d="M 24.5 -0.203125 L 24.5 -3.15625 C 23.5625 -2.175781 22.378906 -1.359375 20.953125 -0.703125 C 19.535156 -0.046875 18.128906 0.28125 16.734375 0.28125 C 14.867188 0.28125 13.082031 -0.078125 11.375 -0.796875 C 9.664062 -1.523438 8.160156 -2.539062 6.859375 -3.84375 C 5.597656 -5.15625 4.601562 -6.660156 3.875 -8.359375 C 3.15625 -10.066406 2.796875 -11.878906 2.796875 -13.796875 L 2.796875 -35 L 8.953125 -35 L 8.953125 -13.796875 C 8.953125 -11.640625 9.722656 -9.796875 11.265625 -8.265625 C 12.804688 -6.722656 14.628906 -5.953125 16.734375 -5.953125 C 17.710938 -5.953125 18.691406 -6.160156 19.671875 -6.578125 C 20.648438 -6.992188 21.488281 -7.554688 22.1875 -8.265625 C 23.726562 -9.796875 24.5 -11.640625 24.5 -13.796875 L 24.5 -35 L 30.59375 -35 L 30.59375 -0.203125 Z M 24.5 -0.203125 "/></g></g></g><g fill="#000000" fill-opacity="1"><g transform="translate(170.476807, 245.249981)"><g><path d="M 25.125 0 L 25.125 -21 C 25.125 -23.101562 24.351562 -24.921875 22.8125 -26.453125 C 21.320312 -27.953125 19.503906 -28.703125 17.359375 -28.703125 C 15.253906 -28.703125 13.4375 -27.929688 11.90625 -26.390625 C 11.195312 -25.691406 10.632812 -24.863281 10.21875 -23.90625 C 9.800781 -22.945312 9.59375 -21.976562 9.59375 -21 L 9.59375 0 L 3.5 0 L 3.5 -34.15625 L 9.59375 -34.15625 L 9.59375 -31.296875 C 10.476562 -32.367188 11.644531 -33.253906 13.09375 -33.953125 C 14.539062 -34.648438 15.960938 -35 17.359375 -35 C 19.222656 -35 21.003906 -34.632812 22.703125 -33.90625 C 24.410156 -33.1875 25.921875 -32.175781 27.234375 -30.875 C 28.492188 -29.613281 29.484375 -28.128906 30.203125 -26.421875 C 30.929688 -24.722656 31.296875 -22.914062 31.296875 -21 L 31.296875 0 Z M 25.125 0 "/></g></g></g><g fill="#000000" fill-opacity="1"><g transform="translate(204.564942, 245.249981)"><g><path d="M 12.671875 -29.125 L 12.671875 0 L 6.796875 0 L 6.796875 -29.125 L 3.5 -29.125 L 3.5 -35 L 6.859375 -35 C 6.953125 -37.238281 7.59375 -39.242188 8.78125 -41.015625 C 9.96875 -42.796875 11.539062 -44.175781 13.5 -45.15625 C 15.46875 -46.132812 17.617188 -46.625 19.953125 -46.625 L 19.953125 -40.59375 C 17.992188 -40.6875 16.347656 -40.195312 15.015625 -39.125 C 13.679688 -38.050781 12.96875 -36.675781 12.875 -35 L 19.953125 -35 L 19.953125 -29.125 Z M 12.671875 -29.125 "/></g></g></g><g fill="#000000" fill-opacity="1"><g transform="translate(226.613734, 245.249981)"><g><path d="M 20.515625 0.34375 C 18.128906 0.34375 15.863281 -0.117188 13.71875 -1.046875 C 11.570312 -1.984375 9.679688 -3.269531 8.046875 -4.90625 C 6.410156 -6.53125 5.125 -8.414062 4.1875 -10.5625 C 3.257812 -12.71875 2.796875 -14.984375 2.796875 -17.359375 C 2.796875 -19.785156 3.257812 -22.09375 4.1875 -24.28125 C 5.125 -26.476562 6.410156 -28.394531 8.046875 -30.03125 C 9.679688 -31.664062 11.570312 -32.9375 13.71875 -33.84375 C 15.863281 -34.75 18.128906 -35.203125 20.515625 -35.203125 C 22.941406 -35.203125 25.25 -34.75 27.4375 -33.84375 C 29.632812 -32.9375 31.550781 -31.664062 33.1875 -30.03125 C 34.8125 -28.394531 36.078125 -26.476562 36.984375 -24.28125 C 37.898438 -22.09375 38.359375 -19.785156 38.359375 -17.359375 C 38.359375 -14.984375 37.898438 -12.71875 36.984375 -10.5625 C 36.078125 -8.414062 34.8125 -6.53125 33.1875 -4.90625 C 31.550781 -3.269531 29.632812 -1.984375 27.4375 -1.046875 C 25.25 -0.117188 22.941406 0.34375 20.515625 0.34375 Z M 20.515625 -28.984375 C 17.378906 -28.984375 14.691406 -27.863281 12.453125 -25.625 C 11.378906 -24.550781 10.539062 -23.289062 9.9375 -21.84375 C 9.332031 -20.394531 9.03125 -18.898438 9.03125 -17.359375 C 9.03125 -15.816406 9.332031 -14.34375 9.9375 -12.9375 C 10.539062 -11.539062 11.378906 -10.304688 12.453125 -9.234375 C 13.523438 -8.160156 14.75 -7.320312 16.125 -6.71875 C 17.507812 -6.113281 18.972656 -5.8125 20.515625 -5.8125 C 22.046875 -5.8125 23.535156 -6.113281 24.984375 -6.71875 C 26.429688 -7.320312 27.671875 -8.160156 28.703125 -9.234375 C 29.722656 -10.304688 30.535156 -11.539062 31.140625 -12.9375 C 31.753906 -14.34375 32.0625 -15.816406 32.0625 -17.359375 C 32.0625 -18.898438 31.753906 -20.394531 31.140625 -21.84375 C 30.535156 -23.289062 29.722656 -24.550781 28.703125 -25.625 C 27.671875 -26.695312 26.441406 -27.523438 25.015625 -28.109375 C 23.597656 -28.691406 22.097656 -28.984375 20.515625 -28.984375 Z M 20.515625 -28.984375 "/></g></g></g><g fill="#000000" fill-opacity="1"><g transform="translate(267.771481, 245.249981)"><g><path d="M 19.109375 -28.28125 C 17.992188 -28.789062 16.988281 -29.046875 16.09375 -29.046875 C 14.226562 -29.046875 12.691406 -28.394531 11.484375 -27.09375 C 10.171875 -25.6875 9.515625 -24.078125 9.515625 -22.265625 L 9.515625 0 L 3.5 0 L 3.5 -22.265625 C 3.5 -24.785156 4.140625 -27.09375 5.421875 -29.1875 C 6.703125 -31.289062 8.460938 -32.925781 10.703125 -34.09375 C 12.390625 -34.882812 14.1875 -35.28125 16.09375 -35.28125 C 17.632812 -35.28125 19.101562 -35 20.5 -34.4375 C 21.90625 -33.875 23.378906 -32.960938 24.921875 -31.703125 Z M 19.109375 -28.28125 "/></g></g></g><g fill="#000000" fill-opacity="1"><g transform="translate(295.489961, 245.249981)"><g><path d="M 20.296875 0 L 9.65625 -12.953125 L 9.65625 0 L 3.5 0 L 3.5 -46.546875 L 9.65625 -46.546875 L 9.65625 -26.453125 L 19.1875 -35.421875 L 28.34375 -35.421875 L 11.765625 -20.015625 L 28.421875 0 Z M 20.296875 0 "/></g></g></g><g fill="#000000" fill-opacity="1"><g transform="translate(326.708251, 245.249981)"><g><path d="M 31.84375 0 L 31.84375 -5.3125 C 30.351562 -3.59375 28.628906 -2.21875 26.671875 -1.1875 C 24.710938 -0.164062 22.632812 0.34375 20.4375 0.34375 C 18.007812 0.34375 15.734375 -0.0976562 13.609375 -0.984375 C 11.492188 -1.867188 9.617188 -3.128906 7.984375 -4.765625 C 6.347656 -6.347656 5.070312 -8.222656 4.15625 -10.390625 C 3.25 -12.566406 2.796875 -14.84375 2.796875 -17.21875 C 2.796875 -19.601562 3.25 -21.878906 4.15625 -24.046875 C 5.070312 -26.210938 6.347656 -28.113281 7.984375 -29.75 C 9.617188 -31.382812 11.492188 -32.644531 13.609375 -33.53125 C 15.734375 -34.414062 18.007812 -34.859375 20.4375 -34.859375 C 22.675781 -34.859375 24.785156 -34.390625 26.765625 -33.453125 C 28.753906 -32.523438 30.445312 -31.222656 31.84375 -29.546875 L 31.84375 -34.15625 L 38.15625 -34.15625 L 38.15625 0 Z M 20.4375 -28.625 C 18.894531 -28.625 17.410156 -28.332031 15.984375 -27.75 C 14.566406 -27.164062 13.34375 -26.363281 12.3125 -25.34375 C 11.289062 -24.3125 10.488281 -23.082031 9.90625 -21.65625 C 9.320312 -20.238281 9.03125 -18.757812 9.03125 -17.21875 C 9.03125 -15.675781 9.320312 -14.203125 9.90625 -12.796875 C 10.488281 -11.398438 11.289062 -10.191406 12.3125 -9.171875 C 13.34375 -8.140625 14.566406 -7.332031 15.984375 -6.75 C 17.410156 -6.164062 18.894531 -5.875 20.4375 -5.875 C 21.976562 -5.875 23.445312 -6.164062 24.84375 -6.75 C 26.25 -7.332031 27.460938 -8.140625 28.484375 -9.171875 C 29.515625 -10.191406 30.320312 -11.398438 30.90625 -12.796875 C 31.488281 -14.203125 31.78125 -15.675781 31.78125 -17.21875 C 31.78125 -18.757812 31.488281 -20.238281 30.90625 -21.65625 C 30.320312 -23.082031 29.515625 -24.3125 28.484375 -25.34375 C 27.460938 -26.363281 26.25 -27.164062 24.84375 -27.75 C 23.445312 -28.332031 21.976562 -28.625 20.4375 -28.625 Z M 20.4375 -28.625 "/></g></g></g><g fill="#000000" fill-opacity="1"><g transform="translate(368.355976, 245.249981)"><g><path d="M 21.28125 0.34375 C 19.082031 0.34375 16.96875 -0.164062 14.9375 -1.1875 C 12.914062 -2.21875 11.15625 -3.617188 9.65625 -5.390625 L 9.65625 0 L 3.5 0 L 3.5 -46.484375 L 9.65625 -46.484375 L 9.65625 -29.953125 C 10.6875 -31.398438 12.21875 -32.679688 14.25 -33.796875 C 16.28125 -34.921875 18.625 -35.484375 21.28125 -35.484375 C 23.65625 -35.484375 25.941406 -35.015625 28.140625 -34.078125 C 30.335938 -33.148438 32.226562 -31.867188 33.8125 -30.234375 C 35.445312 -28.554688 36.71875 -26.628906 37.625 -24.453125 C 38.53125 -22.285156 38.984375 -19.988281 38.984375 -17.5625 C 38.984375 -15.144531 38.53125 -12.847656 37.625 -10.671875 C 36.71875 -8.503906 35.445312 -6.582031 33.8125 -4.90625 C 32.226562 -3.269531 30.335938 -1.984375 28.140625 -1.046875 C 25.941406 -0.117188 23.65625 0.34375 21.28125 0.34375 Z M 21.28125 -29.125 C 19.738281 -29.125 18.253906 -28.832031 16.828125 -28.25 C 15.410156 -27.664062 14.1875 -26.835938 13.15625 -25.765625 C 12.132812 -24.691406 11.316406 -23.441406 10.703125 -22.015625 C 10.097656 -20.585938 9.796875 -19.101562 9.796875 -17.5625 C 9.796875 -14.4375 10.914062 -11.707031 13.15625 -9.375 C 14.1875 -8.300781 15.410156 -7.460938 16.828125 -6.859375 C 18.253906 -6.253906 19.738281 -5.953125 21.28125 -5.953125 C 22.820312 -5.953125 24.289062 -6.253906 25.6875 -6.859375 C 27.09375 -7.460938 28.304688 -8.300781 29.328125 -9.375 C 31.566406 -11.707031 32.6875 -14.4375 32.6875 -17.5625 C 32.6875 -19.101562 32.382812 -20.585938 31.78125 -22.015625 C 31.175781 -23.441406 30.359375 -24.691406 29.328125 -25.765625 C 28.304688 -26.835938 27.09375 -27.664062 25.6875 -28.25 C 24.289062 -28.832031 22.820312 -29.125 21.28125 -29.125 Z M 21.28125 -29.125 "/></g></g></g><g fill="#000000" fill-opacity="1"><g transform="translate(410.143684, 245.249981)"><g><path d="M 3.5 0 L 3.5 -46.546875 L 9.09375 -46.546875 L 9.09375 0 Z M 3.5 0 "/></g></g></g><g fill="#000000" fill-opacity="1"><g transform="translate(422.742987, 245.249981)"><g><path d="M 9.515625 -14.84375 C 9.515625 -13.71875 9.921875 -12.546875 10.734375 -11.328125 C 11.554688 -10.117188 12.503906 -9.097656 13.578125 -8.265625 C 15.535156 -6.722656 17.820312 -5.953125 20.4375 -5.953125 C 24.59375 -5.953125 27.976562 -7.957031 30.59375 -11.96875 L 35.90625 -8.8125 C 34.09375 -5.875 31.851562 -3.613281 29.1875 -2.03125 C 26.53125 -0.445312 23.613281 0.34375 20.4375 0.34375 C 18.0625 0.34375 15.800781 -0.109375 13.65625 -1.015625 C 11.507812 -1.921875 9.617188 -3.191406 7.984375 -4.828125 C 6.347656 -6.460938 5.070312 -8.351562 4.15625 -10.5 C 3.25 -12.644531 2.796875 -14.910156 2.796875 -17.296875 C 2.796875 -19.671875 3.25 -21.941406 4.15625 -24.109375 C 5.070312 -26.285156 6.347656 -28.1875 7.984375 -29.8125 C 9.566406 -31.445312 11.441406 -32.707031 13.609375 -33.59375 C 15.785156 -34.488281 18.0625 -34.9375 20.4375 -34.9375 C 22.820312 -34.9375 25.097656 -34.488281 27.265625 -33.59375 C 29.429688 -32.707031 31.3125 -31.445312 32.90625 -29.8125 C 36.351562 -26.269531 38.078125 -22.164062 38.078125 -17.5 C 38.078125 -16.65625 38.007812 -15.769531 37.875 -14.84375 Z M 20.4375 -29.1875 C 18.519531 -29.1875 16.722656 -28.765625 15.046875 -27.921875 C 13.367188 -27.085938 12.023438 -25.984375 11.015625 -24.609375 C 10.015625 -23.234375 9.515625 -21.773438 9.515625 -20.234375 L 31.359375 -20.234375 C 31.359375 -21.773438 30.851562 -23.234375 29.84375 -24.609375 C 28.84375 -25.984375 27.503906 -27.085938 25.828125 -27.921875 C 24.148438 -28.765625 22.351562 -29.1875 20.4375 -29.1875 Z M 20.4375 -29.1875 "/></g></g></g></svg>