<svg xmlns="http://www.w3.org/2000/svg" xmlns:xlink="http://www.w3.org/1999/xlink" width="800" zoomAndPan="magnify" viewBox="0 0 600 449.999984" height="600" preserveAspectRatio="xMidYMid meet" version="1.0"><defs><g/></defs><g fill="#000000" fill-opacity="1"><g transform="translate(229.576164, 305.249973)"><g><path d="M 16.796875 -39.484375 L 15.6875 -186.203125 L 37.515625 -186.203125 L 36.40625 -39.484375 Z M 26.3125 1.40625 C 22.769531 1.40625 19.832031 0.238281 17.5 -2.09375 C 15.164062 -4.425781 14 -7.367188 14 -10.921875 C 14 -14.273438 15.164062 -17.164062 17.5 -19.59375 C 19.832031 -22.019531 22.769531 -23.234375 26.3125 -23.234375 C 29.675781 -23.234375 32.570312 -22.019531 35 -19.59375 C 37.425781 -17.164062 38.640625 -14.273438 38.640625 -10.921875 C 38.640625 -7.367188 37.425781 -4.425781 35 -2.09375 C 32.570312 0.238281 29.675781 1.40625 26.3125 1.40625 Z M 26.3125 1.40625 "/></g></g></g><g fill="#000000" fill-opacity="1"><g transform="translate(282.215606, 305.249973)"><g><path d="M 50.6875 -116.484375 L 50.6875 0 L 27.15625 0 L 27.15625 -116.484375 L 14 -116.484375 L 14 -140 L 27.4375 -140 C 27.8125 -148.957031 30.378906 -156.984375 35.140625 -164.078125 C 39.898438 -171.171875 46.195312 -176.675781 54.03125 -180.59375 C 61.875 -184.519531 70.460938 -186.484375 79.796875 -186.484375 L 79.796875 -162.40625 C 71.960938 -162.769531 65.382812 -160.804688 60.0625 -156.515625 C 54.738281 -152.222656 51.890625 -146.71875 51.515625 -140 L 79.796875 -140 L 79.796875 -116.484375 Z M 50.6875 -116.484375 "/></g></g></g></svg>